<?xml version="1.0" encoding="UTF-8"?>
<svg width="16" height="16" version="1.1" viewBox="0 0 4.2333 4.2333" xmlns="http://www.w3.org/2000/svg">
  <g stroke-linecap="round" stroke-linejoin="round">
    <path d="m0.77721 1.4552c-0.21758 0-0.39636 0.17878-0.39636 0.39636v1.6092c0 0.21758 0.17878 0.39688 0.39636 0.39688h1.6035c0.21758 0 0.39636-0.1793 0.39636-0.39688v-0.8046h-0.26355v0.8046c0 0.075578-0.057231 0.13126-0.13281 0.13126h-1.6035c-0.075578 0-0.13074-0.05568-0.13074-0.13126v-1.6092c0-0.075578 0.055164-0.13074 0.13074-0.13074h0.80253v-0.26562h-0.80253z" color="#000000" stroke-dashoffset="6.5065" style="-inkscape-stroke:none;paint-order:stroke fill markers"/>
    <path d="m2.1172 0.92552a0.13229 0.13229 0 0 0-0.13281 0.13126 0.13229 0.13229 0 0 0 0.13281 0.13281l0.73846 0.0015503-1.3617 1.3617a0.13229 0.13229 0 0 0 0 0.18759 0.13229 0.13229 0 0 0 0.18759 0l1.3617-1.3632v0.74001a0.13229 0.13229 0 0 0 0.13281 0.13074 0.13229 0.13229 0 0 0 0.13074-0.13074v-1.0583a0.13229 0.13229 0 0 0-0.0010335-0.013953 0.1323 0.1323 0 0 0-5.168e-4 -0.0036173 0.13229 0.13229 0 0 0 0-5.168e-4 0.1323 0.1323 0 0 0-0.0031005-0.015503 0.1323 0.1323 0 0 0 0-0.0010335 0.13229 0.13229 0 0 0 0-5.168e-4 0.1323 0.1323 0 0 0-0.0056844-0.01602 0.13229 0.13229 0 0 0-0.0010336-0.0025838 0.1323 0.1323 0 0 0-0.0067179-0.012919 0.1323 0.1323 0 0 0-0.0098185-0.014469 0.1323 0.1323 0 0 0-0.011369-0.012919 0.1323 0.1323 0 0 0-0.091467-0.039274h-1.0589z" color="#000000" fill-rule="evenodd" style="-inkscape-stroke:none"/>
  </g>
</svg>
