<?xml version="1.0" encoding="UTF-8" standalone="no"?>
<!-- Created with Inkscape (http://www.inkscape.org/) -->

<svg
   width="303.72003"
   height="134.25113"
   viewBox="0 0 80.359257 35.520612"
   version="1.1"
   id="svg5"
   xmlns:xlink="http://www.w3.org/1999/xlink"
   xmlns="http://www.w3.org/2000/svg"
   xmlns:svg="http://www.w3.org/2000/svg">
  <defs
     id="defs2">
    <linearGradient
       id="linearGradient1170">
      <stop
         style="stop-color:#000000;stop-opacity:1;"
         offset="0"
         id="stop1168" />
    </linearGradient>
    <linearGradient
       id="linearGradient1154">
      <stop
         style="stop-color:#000000;stop-opacity:1;"
         offset="0"
         id="stop1152" />
    </linearGradient>
    <linearGradient
       id="linearGradient1122">
      <stop
         style="stop-color:#000000;stop-opacity:1;"
         offset="0"
         id="stop1120" />
    </linearGradient>
    <linearGradient
       id="linearGradient1062">
      <stop
         style="stop-color:#000000;stop-opacity:1;"
         offset="0"
         id="stop1060" />
    </linearGradient>
    <linearGradient
       id="linearGradient1002">
      <stop
         style="stop-color:#000000;stop-opacity:1;"
         offset="0"
         id="stop1000" />
    </linearGradient>
    <linearGradient
       id="linearGradient996">
      <stop
         style="stop-color:#000000;stop-opacity:1;"
         offset="0"
         id="stop994" />
    </linearGradient>
    <linearGradient
       id="linearGradient990">
      <stop
         style="stop-color:#000000;stop-opacity:1;"
         offset="0"
         id="stop988" />
    </linearGradient>
    <linearGradient
       id="linearGradient984">
      <stop
         style="stop-color:#ffd6ba;stop-opacity:1;"
         offset="0"
         id="stop982" />
    </linearGradient>
    <linearGradient
       id="secondary">
      <stop
         style="stop-color:#36f1cd;stop-opacity:1;"
         offset="0"
         id="stop976" />
    </linearGradient>
    <linearGradient
       id="primary">
      <stop
         style="stop-color:#39a0ed;stop-opacity:1;"
         offset="0"
         id="stop970" />
    </linearGradient>
    <linearGradient
       xlink:href="#primary"
       id="linearGradient974"
       x1="69.206795"
       y1="83.591888"
       x2="82.647835"
       y2="83.591888"
       gradientUnits="userSpaceOnUse" />
    <linearGradient
       xlink:href="#secondary"
       id="linearGradient980"
       x1="104.77671"
       y1="81.843155"
       x2="110.67403"
       y2="81.843155"
       gradientUnits="userSpaceOnUse" />
    <linearGradient
       xlink:href="#secondary"
       id="linearGradient986"
       x1="115.03655"
       y1="81.852455"
       x2="124.18948"
       y2="81.852455"
       gradientUnits="userSpaceOnUse" />
    <linearGradient
       xlink:href="#primary"
       id="linearGradient992"
       x1="99.186356"
       y1="81.596657"
       x2="102.20013"
       y2="81.596657"
       gradientUnits="userSpaceOnUse" />
    <linearGradient
       xlink:href="#primary"
       id="linearGradient998"
       x1="89.028839"
       y1="81.480385"
       x2="98.358498"
       y2="81.480385"
       gradientUnits="userSpaceOnUse" />
    <linearGradient
       xlink:href="#primary"
       id="linearGradient1004"
       x1="83.959381"
       y1="81.596657"
       x2="86.973145"
       y2="81.596657"
       gradientUnits="userSpaceOnUse" />
    <linearGradient
       xlink:href="#linearGradient984"
       id="linearGradient1124"
       x1="59.005516"
       y1="82.21666"
       x2="139.36478"
       y2="82.21666"
       gradientUnits="userSpaceOnUse"
       gradientTransform="translate(36.281521,23.61667)" />
    <linearGradient
       xlink:href="#linearGradient990"
       id="linearGradient1156"
       x1="69.206795"
       y1="81.573402"
       x2="124.18948"
       y2="81.573402"
       gradientUnits="userSpaceOnUse" />
    <linearGradient
       xlink:href="#linearGradient990"
       id="linearGradient1172"
       x1="95.287033"
       y1="105.83333"
       x2="175.64629"
       y2="105.83333"
       gradientUnits="userSpaceOnUse" />
    <linearGradient
       xlink:href="#linearGradient990"
       id="linearGradient1902"
       gradientUnits="userSpaceOnUse"
       x1="69.206795"
       y1="81.573402"
       x2="124.18948"
       y2="81.573402" />
    <linearGradient
       xlink:href="#linearGradient990"
       id="linearGradient1904"
       gradientUnits="userSpaceOnUse"
       x1="69.206795"
       y1="81.573402"
       x2="124.18948"
       y2="81.573402" />
    <linearGradient
       xlink:href="#linearGradient990"
       id="linearGradient1906"
       gradientUnits="userSpaceOnUse"
       x1="69.206795"
       y1="81.573402"
       x2="124.18948"
       y2="81.573402" />
    <linearGradient
       xlink:href="#linearGradient990"
       id="linearGradient1908"
       gradientUnits="userSpaceOnUse"
       x1="69.206795"
       y1="81.573402"
       x2="124.18948"
       y2="81.573402" />
    <linearGradient
       xlink:href="#linearGradient990"
       id="linearGradient1910"
       gradientUnits="userSpaceOnUse"
       x1="69.206795"
       y1="81.573402"
       x2="124.18948"
       y2="81.573402" />
    <linearGradient
       xlink:href="#linearGradient990"
       id="linearGradient1912"
       gradientUnits="userSpaceOnUse"
       x1="69.206795"
       y1="81.573402"
       x2="124.18948"
       y2="81.573402" />
  </defs>
  <g
     id="layer1"
     transform="translate(-95.287033,-88.073029)">
    <g
       aria-label="wiki10"
       id="text243"
       style="font-weight:bold;font-size:19.05px;line-height:125%;font-family:Roboto;-inkscape-font-specification:'Roboto Bold';letter-spacing:0px;word-spacing:0px;stroke-width:0.264583px">
      <path
         id="rect1118"
         style="fill:url(#linearGradient1124);stroke-width:1.00012;stroke-linejoin:round;paint-order:stroke fill markers"
         d="m 113.04734,88.073029 h 44.83865 c 9.83921,0 17.7603,7.921095 17.7603,17.760301 0,9.83921 -7.92109,17.76031 -17.7603,17.76031 h -44.83865 c -9.83921,0 -17.760307,-7.9211 -17.760307,-17.76031 0,-9.839206 7.921097,-17.760301 17.760307,-17.760301 z" />
      <path
         id="path1166"
         style="fill:none;fill-opacity:1;stroke:url(#linearGradient1172);stroke-width:1.00012;stroke-linejoin:round;paint-order:stroke fill markers"
         d="m 113.04688,90.189453 h 44.83984 c 8.66748,0 15.64258,6.976775 15.64258,15.644527 0,8.66777 -6.97481,15.64258 -15.64258,15.64258 h -44.83984 c -8.66778,0 -15.642583,-6.97481 -15.642583,-15.64258 0,-8.66775 6.975093,-15.644527 15.642583,-15.644527 z" />
      <g
         id="g1132"
         transform="translate(38.768531,24.259928)"
         style="fill:url(#linearGradient1156);fill-opacity:1">
        <path
           d="m 68.287109,77.845703 2.931641,11.494141 h 3.328125 l 1.375,-4.574219 1.376953,4.574219 h 3.335938 L 83.568359,77.845703 H 79.470703 L 78.619141,81.976562 77.4375,77.845703 h -3.019531 l -1.1875,4.126953 -0.845703,-4.126953 z"
           id="path349"
           style="fill:url(#linearGradient1902);fill-opacity:1" />
        <path
           d="m 85.466797,73.853516 c -0.615051,0 -1.163291,0.169741 -1.607422,0.59375 -0.415196,0.405542 -0.615234,0.926963 -0.615234,1.507812 0,0.608994 0.190307,1.099334 0.636718,1.525391 0.273758,0.255508 0.646789,0.278328 0.992188,0.365234 h -1.470703 v 11.494141 h 4.126953 V 77.845703 h -1.472656 c 0.344734,-0.08698 0.718926,-0.109948 0.986328,-0.365234 0.449525,-0.419558 0.644531,-0.914054 0.644531,-1.525391 0,-0.60298 -0.188113,-1.092913 -0.628906,-1.513672 -0.435697,-0.415891 -0.980921,-0.58789 -1.591797,-0.58789 z"
           id="path351"
           style="fill:url(#linearGradient1904);fill-opacity:1" />
        <path
           d="m 88.314453,73.621094 v 15.71875 h 4.117188 v -3.488282 l 0.130859,-0.130859 2.316406,3.619141 h 4.822266 l -4.398438,-6.53125 4.306641,-4.962891 h -5.125 l -2.052734,2.408203 v -6.632812 z"
           id="path353"
           style="fill:url(#linearGradient1906);fill-opacity:1" />
        <path
           d="m 100.69336,73.853516 c -0.61505,0 -1.163294,0.169743 -1.607422,0.59375 -0.415199,0.405543 -0.615235,0.926965 -0.615235,1.507812 0,0.608994 0.19031,1.099334 0.636719,1.525391 0.273756,0.255508 0.646787,0.278328 0.992188,0.365234 h -1.470704 v 11.494141 h 4.128904 V 77.845703 h -1.47461 c 0.34474,-0.08698 0.71893,-0.109948 0.98633,-0.365234 0.44952,-0.419555 0.64453,-0.914048 0.64453,-1.525391 0,-0.602977 -0.1881,-1.092903 -0.6289,-1.513672 -0.4357,-0.415877 -0.98092,-0.58789 -1.5918,-0.58789 z"
           id="path355"
           style="fill:url(#linearGradient1908);fill-opacity:1" />
        <path
           d="m 110.25977,74.347656 -6.19727,2.222656 v 3.658204 l 3.20898,-0.998047 v 10.109375 h 4.11719 V 74.347656 Z"
           id="path357"
           style="fill:url(#linearGradient1910);fill-opacity:1" />
        <path
           d="m 119.60352,74.179688 c -1.6739,0 -2.99353,0.546408 -3.95313,1.740234 -0.91669,1.149517 -1.32812,2.765332 -1.32812,4.751953 v 2.5 c 0.0196,1.916259 0.44402,3.486885 1.35742,4.625 0.95322,1.18776 2.2709,1.728516 3.94336,1.728516 1.69209,0 3.02028,-0.552131 3.96679,-1.763672 0.90524,-1.158693 1.31446,-2.768244 1.31446,-4.736328 v -2.501953 c -0.0196,-1.916272 -0.44394,-3.484266 -1.35742,-4.615235 -0.95324,-1.187752 -2.27091,-1.728515 -3.94336,-1.728515 z m 0,3.607421 c 0.41634,0 0.65708,0.146751 0.81836,0.419922 l 0.002,0.0039 0.004,0.0039 c 0.21894,0.359067 0.35938,1.001067 0.35938,2.074218 V 83.5 c -0.0118,1.011921 -0.14772,1.638871 -0.36328,2.019531 -0.15004,0.264961 -0.37603,0.408203 -0.80078,0.408203 -0.4253,0 -0.66583,-0.148393 -0.82617,-0.429687 -0.22321,-0.404553 -0.35743,-1.063745 -0.35743,-2.119141 v -3.279297 c 0.0177,-0.985714 0.15771,-1.575586 0.36719,-1.916015 0.15756,-0.254025 0.39446,-0.396485 0.79688,-0.396485 z"
           id="path359"
           style="fill:url(#linearGradient1912);fill-opacity:1" />
      </g>
      <g
         id="g1148"
         transform="translate(38.768531,24.259928)">
        <path
           d="m 78.731791,84.968547 1.32085,-6.408911 h 2.59519 L 80.080546,88.624138 H 77.829521 L 75.922661,82.289641 74.0158,88.624138 H 71.774077 L 69.206792,78.559636 h 2.59519 l 1.311548,6.399609 1.841748,-6.399609 h 1.944067 z"
           id="path1136"
           style="fill:url(#linearGradient974);fill-opacity:1" />
        <path
           d="m 86.815018,88.624138 h -2.69751 V 78.559636 h 2.69751 z M 83.959379,75.955144 q 0,-0.604614 0.399975,-0.995288 0.409277,-0.390674 1.106909,-0.390674 0.68833,0 1.097608,0.390674 0.409277,0.390674 0.409277,0.995288 0,0.613916 -0.418579,1.00459 -0.409277,0.390674 -1.088306,0.390674 -0.679028,0 -1.097607,-0.390674 -0.409277,-0.390674 -0.409277,-1.00459 z"
           id="path1138"
           style="fill:url(#linearGradient1004);fill-opacity:1" />
        <path
           d="m 92.684427,84.587175 -0.967382,0.967383 v 3.06958 h -2.688208 v -14.2875 h 2.688208 v 7.915796 l 0.520898,-0.669727 2.576587,-3.023071 h 3.22771 l -3.636987,4.195093 3.953246,5.869409 h -3.088183 z"
           id="path1140"
           style="fill:url(#linearGradient998);fill-opacity:1" />
        <path
           d="M 102.042,88.624138 H 99.344486 V 78.559636 H 102.042 Z M 99.186356,75.955144 q 0,-0.604614 0.399976,-0.995288 0.409277,-0.390674 1.106908,-0.390674 0.68833,0 1.09761,0.390674 0.40928,0.390674 0.40928,0.995288 0,0.613916 -0.41858,1.00459 -0.40928,0.390674 -1.08831,0.390674 -0.67903,0 -1.097607,-0.390674 -0.409277,-0.390674 -0.409277,-1.00459 z"
           id="path1142"
           style="fill:url(#linearGradient992);fill-opacity:1" />
        <path
           d="m 110.67403,88.624138 h -2.68821 V 78.26198 l -3.20911,0.995288 v -2.185913 l 5.60896,-2.009179 h 0.28836 z"
           id="path1144"
           style="fill:url(#linearGradient980);fill-opacity:1" />
        <path
           d="m 124.18948,83.02448 q 0,2.809131 -1.16272,4.297412 -1.16272,1.488281 -3.40444,1.488281 -2.21382,0 -3.38584,-1.460376 -1.17202,-1.460376 -1.19993,-4.185791 v -2.492871 q 0,-2.837036 1.17202,-4.306713 1.18133,-1.469678 3.39515,-1.469678 2.21381,0 3.38584,1.460376 1.17202,1.451074 1.19992,4.176489 z m -2.68821,-2.734717 q 0,-1.683618 -0.46508,-2.446362 -0.45579,-0.772046 -1.43247,-0.772046 -0.94878,0 -1.40457,0.734839 -0.44648,0.725537 -0.47439,2.278931 v 3.292822 q 0,1.655713 0.44648,2.464965 0.45579,0.799952 1.45108,0.799952 0.98599,0 1.42317,-0.772046 0.43718,-0.772046 0.45578,-2.362647 z"
           id="path1146"
           style="fill:url(#linearGradient986);fill-opacity:1" />
      </g>
    </g>
  </g>
</svg>
